<svg width="315" height="433" xmlns="http://www.w3.org/2000/svg">
 <g>
  <title>Layer 1</title>
  <g>
   <g transform="matrix(0.444021 0 0 0.444021 26.1451 29.9727)">
    <g transform="translate(0 512) scale(0.1 -0.1)">
     <path d="m2339.67504,5760.7557c-831.4,-111.9 -1643,-462.8 -2314.3,-1002.5c-175.5,-140.4 -614.2,-572.5 -614.2,-603.2c0,-11 153.5,-149.2 342.2,-307.1l342.2,-287.4l188.6,193c541.8,546.2 1173.6,890.6 1958.9,1061.7c199.6,41.7 291.7,48.3 721.7,50.4c434.3,0 522.1,-6.6 730.5,-50.4c355.4,-76.8 607.6,-164.5 947.6,-333.4c383.9,-190.8 655.9,-383.9 958.6,-682.2l236.9,-232.5l333.4,283c184.3,155.7 340,293.9 344.4,304.9c13.1,39.5 -500.2,528.7 -741.5,708.5c-673.4,500.2 -1392.9,791.9 -2226.5,901.6c-317.9,41.6 -883.9,39.4 -1208.5,-4.4z"/>
     <path d="m2605.07504,3909.3557c-491.4,-68 -954.2,-261 -1344.7,-561.6c-168.9,-127.2 -511.1,-478.2 -511.1,-519.9c2.2,-13.2 162.3,-144.8 357.6,-291.8l356.4,-265.4l116.3,127.2c375.1,419 930.1,640.5 1502.6,607.6c491.4,-28.5 906,-221.6 1241.6,-574.7l149.1,-157.9l348.8,261c190.9,144.8 357.6,269.8 366.3,278.6c26.3,26.3 -357.5,421.2 -555,570.3c-302.7,228.1 -732.7,419 -1118.7,495.8c-209.4,41.7 -711.8,59.3 -909.2,30.8z"/>
     <path transform="matrix(0.999989 0.004627 -0.004627 0.999989 -8.67462 -21.9546)" d="m1723.17446,1628.50442c-505.133,-135.999 -890.822,-522.296 -1024.766,-1028.791c-51.293,-192.999 -63.302,-3242.178 -13.785,-3454.876c58.012,-256.699 169.009,-451.898 365.496,-649.296c194.309,-193.099 310.265,-267.598 559.96,-355.397l164.227,-59.199l1120.875,-6.6c1272.277,-6.6 1313.988,-4.4 1632.809,151.298c250.671,122.899 501.819,370.698 621.437,611.995c155.041,311.499 152.569,274.199 154.473,2090.486c0.88,1616.689 0.931,1627.689 -46.61,1770.188c-142.842,423.396 -479.081,761.194 -901.714,905.992c-140.186,46.1 -168.676,48.3 -1326.863,52.7c-991.686,4.4 -1204.507,0 -1305.539,-28.5zm2458.988,-956.392c48.155,-31.7 111.466,-94.299 141.942,-142.599l58.813,-83.4l-0.586,-1553.089c-2.512,-1493.889 -2.786,-1553.088 -44.861,-1634.188c-55.287,-105.299 -145.683,-190.799 -248.977,-232.499c-123.044,-52.599 -2106.156,-52.599 -2228.712,0c-102.908,41.7 -192.413,127.2 -246.826,232.499c-39.134,79 -41.01,149.199 -34.26,1607.888c6.749,1458.79 9.275,1528.99 49.139,1607.889c48.727,92.1 136.834,179.899 233.577,232.499c57.143,30.7 193.153,32.9 1151.738,28.5l1085.787,-4.4l83.226,-59.1z"/>
     <path d="m2847.40404,-1252.4563c-454.1,-96.5 -616.4,-638.3 -289.6,-973.9c85.6,-87.8 269.8,-168.9 386.1,-168.9c315.9,0 583.5,265.4 583.5,581.3c-2.2,357.5 -337.8,633.9 -680,561.5z"/>
    </g>
   </g>
  </g>
 </g>
</svg>